<svg xmlns="http://www.w3.org/2000/svg" viewBox="0 0 800 500" role="img" aria-label="Halaman depan yang cuma jadi tempat parkir motor tamu, disewakan bulanan.">
  <!-- Kartu promosi Ruang. Dihasilkan `skrip/buat-promo.py` — jangan disunting
       langsung; ubah skripnya lalu jalankan ulang, supaya keempat kartu tidak
       pernah berbeda margin atau ukuran huruf. -->
  <rect width="800" height="500" rx="28" fill="#eef2f9"/>
  <rect x="1" y="1" width="798" height="498" rx="27" fill="none" stroke="#dde3ec" stroke-width="2"/>

  <g font-family="-apple-system,BlinkMacSystemFont,'Segoe UI',Roboto,Helvetica,Arial,sans-serif">
    <text x="56" y="88" font-size="46" font-weight="800" fill="#0f172a" letter-spacing="-1"><tspan x="56" dy="0">Lahan nganggur</tspan><tspan x="56" dy="58">jadi cuan</tspan></text>
    <text x="56" y="192" font-size="21" fill="#64748b">Halaman depan yang cuma jadi tempat parkir motor tamu, disewakan bulanan.</text>
  </g>

  <g>
    <rect x="56" y="252" width="300" height="150" rx="16" fill="#ffffff" stroke="#dde3ec" stroke-width="2"/>
    <rect x="88" y="338" width="236" height="8" rx="4" fill="#c9d3e2"/>
    <text x="206" y="308" text-anchor="middle" font-family="-apple-system,BlinkMacSystemFont,'Segoe UI',Roboto,Helvetica,Arial,sans-serif" font-size="19" fill="#64748b">halaman nganggur</text>

    <path d="M386 327 h34 m0 0 -11 -11 m11 11 -11 11" stroke="#1f5fff" stroke-width="4"
          stroke-linecap="round" stroke-linejoin="round" fill="none"/>

    <rect x="444" y="252" width="300" height="150" rx="16" fill="#ffffff" stroke="#1f5fff" stroke-width="2"/>
    <path fill="#1f5fff" d="M556.88 278 H631.12 L652.0 319.76 A19.333333333333332 13.92 0 0 1 613.3333333333334 319.76 A19.333333333333332 13.92 0 0 1 574.6666666666666 319.76 A19.333333333333332 13.92 0 0 1 536.0 319.76 Z"/>
    <rect x="476" y="338" width="236" height="8" rx="4" fill="#1f5fff"/>
    <g font-family="-apple-system,BlinkMacSystemFont,'Segoe UI',Roboto,Helvetica,Arial,sans-serif">
      <rect x="530" y="358" width="128" height="32" rx="16" fill="#dbe6ff"/>
      <text x="594" y="380" text-anchor="middle" font-size="18" font-weight="700" fill="#1a3fa8">Rp 600rb/bln</text>
    </g>
  </g>

  <g font-family="-apple-system,BlinkMacSystemFont,'Segoe UI',Roboto,Helvetica,Arial,sans-serif">
    <rect x="56" y="424" width="30" height="30" rx="7" fill="#1f5fff"/>
    <path fill="#ffffff" d="M65.3 431.5 H76.7 L79.9 438.2
      A2.97 2.27 0 0 1 73.9 438.2 A2.97 2.27 0 0 1 68 438.2 A2.97 2.27 0 0 1 62.1 438.2 Z"/>
    <rect x="61.1" y="443.4" width="19.8" height="1.8" fill="#ffffff"/>
    <text x="96" y="445" font-size="20" font-weight="700" fill="#0f172a">Ruang</text>
    <text x="163" y="445" font-size="17" fill="#64748b">· lahan nganggur jadi cuan</text>
  </g>
</svg>
