<svg xmlns="http://www.w3.org/2000/svg" viewBox="0 0 800 500" role="img" aria-label="Yang kelihatan umum cuma kelurahan dan jarak. Titik di peta digeser 200 meter.">
  <!-- Kartu promosi Ruang. Dihasilkan `skrip/buat-promo.py` — jangan disunting
       langsung; ubah skripnya lalu jalankan ulang, supaya keempat kartu tidak
       pernah berbeda margin atau ukuran huruf. -->
  <rect width="800" height="500" rx="28" fill="#eef2f9"/>
  <rect x="1" y="1" width="798" height="498" rx="27" fill="none" stroke="#dde3ec" stroke-width="2"/>

  <g font-family="-apple-system,BlinkMacSystemFont,'Segoe UI',Roboto,Helvetica,Arial,sans-serif">
    <text x="56" y="88" font-size="46" font-weight="800" fill="#0f172a" letter-spacing="-1"><tspan x="56" dy="0">Alamat kebuka bertahap</tspan></text>
    <text x="56" y="134" font-size="21" fill="#64748b">Yang kelihatan umum cuma kelurahan dan jarak. Titik di peta digeser 200 meter.</text>
  </g>

  <g><g>
      <rect x="56" y="238" width="212" height="160" rx="16" fill="#ffffff" stroke="#1f5fff" stroke-width="2"/>
      <circle cx="86" cy="272" r="15" fill="#1f5fff"/>
      <text x="86" y="279" text-anchor="middle" font-family="-apple-system,BlinkMacSystemFont,'Segoe UI',Roboto,Helvetica,Arial,sans-serif" font-size="17"
            font-weight="800" fill="#ffffff">1</text>
      <text x="112" y="279" font-family="-apple-system,BlinkMacSystemFont,'Segoe UI',Roboto,Helvetica,Arial,sans-serif" font-size="17" font-weight="700" fill="#0f172a">Semua orang</text>
      <text x="80" y="324" font-family="-apple-system,BlinkMacSystemFont,'Segoe UI',Roboto,Helvetica,Arial,sans-serif" font-size="18" fill="#64748b"><tspan x="80" dy="0">Kelurahan, kecamatan,</tspan><tspan x="80" dy="26">jarak persis</tspan></text>
    </g><g>
      <rect x="294" y="238" width="212" height="160" rx="16" fill="#ffffff" stroke="#dde3ec" stroke-width="2"/>
      <circle cx="324" cy="272" r="15" fill="#c9d3e2"/>
      <text x="324" y="279" text-anchor="middle" font-family="-apple-system,BlinkMacSystemFont,'Segoe UI',Roboto,Helvetica,Arial,sans-serif" font-size="17"
            font-weight="800" fill="#ffffff">2</text>
      <text x="350" y="279" font-family="-apple-system,BlinkMacSystemFont,'Segoe UI',Roboto,Helvetica,Arial,sans-serif" font-size="17" font-weight="700" fill="#0f172a">Setelah deal</text>
      <text x="318" y="324" font-family="-apple-system,BlinkMacSystemFont,'Segoe UI',Roboto,Helvetica,Arial,sans-serif" font-size="18" fill="#64748b"><tspan x="318" dy="0">Alamat lengkap</tspan><tspan x="318" dy="26">dan patokannya</tspan></text>
    </g><g>
      <rect x="532" y="238" width="212" height="160" rx="16" fill="#ffffff" stroke="#dde3ec" stroke-width="2"/>
      <circle cx="562" cy="272" r="15" fill="#c9d3e2"/>
      <text x="562" y="279" text-anchor="middle" font-family="-apple-system,BlinkMacSystemFont,'Segoe UI',Roboto,Helvetica,Arial,sans-serif" font-size="17"
            font-weight="800" fill="#ffffff">3</text>
      <text x="588" y="279" font-family="-apple-system,BlinkMacSystemFont,'Segoe UI',Roboto,Helvetica,Arial,sans-serif" font-size="17" font-weight="700" fill="#0f172a">Setelah bayar</text>
      <text x="556" y="324" font-family="-apple-system,BlinkMacSystemFont,'Segoe UI',Roboto,Helvetica,Arial,sans-serif" font-size="18" fill="#64748b"><tspan x="556" dy="0">Nomor kontak</tspan><tspan x="556" dy="26">langsung</tspan></text>
    </g></g>

  <g font-family="-apple-system,BlinkMacSystemFont,'Segoe UI',Roboto,Helvetica,Arial,sans-serif">
    <rect x="56" y="424" width="30" height="30" rx="7" fill="#1f5fff"/>
    <path fill="#ffffff" d="M65.3 431.5 H76.7 L79.9 438.2
      A2.97 2.27 0 0 1 73.9 438.2 A2.97 2.27 0 0 1 68 438.2 A2.97 2.27 0 0 1 62.1 438.2 Z"/>
    <rect x="61.1" y="443.4" width="19.8" height="1.8" fill="#ffffff"/>
    <text x="96" y="445" font-size="20" font-weight="700" fill="#0f172a">Ruang</text>
    <text x="163" y="445" font-size="17" fill="#64748b">· lahan nganggur jadi cuan</text>
  </g>
</svg>
